<?xml version="1.0" standalone="no"?><!DOCTYPE svg PUBLIC "-//W3C//DTD SVG 1.1//EN" "http://www.w3.org/Graphics/SVG/1.1/DTD/svg11.dtd" ><svg xmlns="http://www.w3.org/2000/svg"><metadata></metadata><defs><font id="2.006;tyPL;Lato-Medium;1944;TR4-4.0.1.5099" horiz-adv-x="2076"><font-face font-family="Lato Medium" font-weight="500" font-stretch="normal" units-per-em="2000" panose-1="2 15 6 2 2 2 4 3 2 3" ascent="1974" descent="-426" x-height="3" bbox="-72 -364 2048 1475" underline-thickness="194" underline-position="-103" unicode-range="U+0030-007a" /><missing-glyph horiz-adv-x="1068"  /><glyph glyph-name="" unicode="a" d="M1357 0 L1197 0 Q1170 0 1153 13.5 Q1136 27 1127 49 L998 386 L361 386 L232 49 Q226 30 207.5 15 Q189 0 163 0 L3 0 L575 1435 L784 1435 L1357 0 ZM418 534 L941 534 L724 1099 Q713 1126 701.5 1161.5 Q690 1197 679 1239 Q668 1197 657 1161 Q646 1125 635 1098 L418 534 Z" /><glyph glyph-name="" unicode="b" d="M179 0 L179 1435 L643 1435 Q777 1435 873 1409 Q969 1383 1031 1334.5 Q1093 1286 1122.5 1216 Q1152 1146 1152 1059 Q1152 1007 1135.5 958.5 Q1119 910 1086 868.5 Q1053 827 1003 793.5 Q953 760 886 739 Q1041 708 1120.5 625.5 Q1200 543 1200 411 Q1200 319 1166 243.5 Q1132 168 1067 114 Q1002 60 907.5 30 Q813 0 692 0 L179 0 ZM385 650 L385 164 L689 164 Q771 164 829 183 Q887 202 924 235.5 Q961 269 978.5 315 Q996 361 996 416 Q996 524 920 587 Q844 650 689 650 L385 650 ZM385 796 L634 796 Q714 796 773 813 Q832 830 870.5 861 Q909 892 928 936 Q947 980 947 1034 Q947 1158 872.5 1215.5 Q798 1273 643 1273 L385 1273 L385 796 Z" /><glyph glyph-name="" unicode="c" d="M1183 304 Q1200 304 1213 291 L1295 201 Q1207 98 1080.5 41 Q954 -16 777 -16 Q621 -16 494.5 38 Q368 92 278.5 189 Q189 286 140.5 421 Q92 556 92 718 Q92 880 143 1015 Q194 1150 287 1246.5 Q380 1343 509.5 1397 Q639 1451 795 1451 Q948 1451 1066.5 1401 Q1185 1351 1273 1268 L1205 1172 Q1198 1162 1188.5 1155.5 Q1179 1149 1162 1149 Q1143 1149 1117.5 1168 Q1092 1187 1050.5 1210.5 Q1009 1234 947 1253 Q885 1272 794 1272 Q686 1272 595.5 1234 Q505 1196 440 1125 Q375 1054 339 951 Q303 848 303 718 Q303 586 340.5 482.5 Q378 379 443.5 308 Q509 237 598 199.5 Q687 162 789 162 Q852 162 902 169.5 Q952 177 994.5 192 Q1037 207 1074 231 Q1111 255 1148 288 Q1156 295 1164.5 299.5 Q1173 304 1183 304 Z" /><glyph glyph-name="" unicode="d" d="M1428 718 Q1428 557 1376.5 424.5 Q1325 292 1231.5 197.5 Q1138 103 1007 51.5 Q876 0 717 0 L179 0 L179 1435 L717 1435 Q876 1435 1007 1383 Q1138 1331 1231.5 1237 Q1325 1143 1376.5 1010.5 Q1428 878 1428 718 ZM1217 718 Q1217 847 1182 949.5 Q1147 1052 1081.5 1122.5 Q1016 1193 923.5 1230.5 Q831 1268 717 1268 L386 1268 L386 167 L717 167 Q831 167 923.5 204.5 Q1016 242 1081.5 312.5 Q1147 383 1182 485.5 Q1217 588 1217 718 Z" /><glyph glyph-name="" unicode="e" d="M1067 1435 L1067 1267 L386 1267 L386 805 L935 805 L935 643 L386 643 L386 168 L1068 168 L1067 0 L179 0 L179 1435 L1067 1435 Z" /><glyph glyph-name="" unicode="f" d="M1067 1435 L1067 1267 L386 1267 L386 779 L967 779 L967 611 L386 611 L386 0 L179 0 L179 1435 L1067 1435 Z" /><glyph glyph-name="" unicode="g" d="M1348 139 Q1239 61 1116.5 22.5 Q994 -16 849 -16 Q676 -16 536 38 Q396 92 297 189 Q198 286 144.5 421 Q91 556 91 718 Q91 881 142.5 1016 Q194 1151 290 1248 Q386 1345 522 1398 Q658 1451 827 1451 Q913 1451 986.5 1438 Q1060 1425 1122.5 1401.5 Q1185 1378 1238.5 1344.5 Q1292 1311 1337 1269 L1279 1175 Q1265 1153 1242.5 1147.5 Q1220 1142 1194 1158 Q1168 1173 1136.5 1192.5 Q1105 1212 1061.5 1229.5 Q1018 1247 959.5 1259.5 Q901 1272 820 1272 Q701 1272 605 1233 Q509 1194 441.5 1122 Q374 1050 337.5 947.5 Q301 845 301 718 Q301 584 339 479 Q377 374 447.5 301 Q518 228 618.5 189.5 Q719 151 843 151 Q891 151 933.5 156.5 Q976 162 1014.5 172.5 Q1053 183 1089 198 Q1125 213 1161 231 L1161 538 L946 538 Q926 538 913.5 549.5 Q901 561 901 578 L901 695 L1348 695 L1348 139 L1348 139 Z" /><glyph glyph-name="" unicode="h" d="M1350 0 L1143 0 L1143 649 L386 649 L386 0 L179 0 L179 1435 L386 1435 L386 799 L1143 799 L1143 1435 L1350 1435 L1350 0 Z" /><glyph glyph-name="" unicode="i" d="M386 0 L179 0 L179 1435 L386 1435 L386 0 Z" /><glyph glyph-name="" unicode="j" d="M683 499 Q683 379 653 283.5 Q623 188 565.5 121.5 Q508 55 423 19.5 Q338 -16 228 -16 Q129 -16 23 12 L35 134 Q37 151 48 162.5 Q59 174 81 174 Q99 174 128.5 165.5 Q158 157 207 157 Q271 157 321.5 176.5 Q372 196 406.5 237 Q441 278 459 341.5 Q477 405 477 494 L477 1435 L683 1435 L683 499 Z" /><glyph glyph-name="" unicode="k" d="M385 812 L456 812 Q494 812 517.5 821.5 Q541 831 560 854 L1024 1388 Q1045 1414 1068 1424.5 Q1091 1435 1124 1435 L1299 1435 L763 822 Q724 774 684 754 Q738 735 779 678 L1337 0 L1158 0 Q1118 0 1099 11.5 Q1080 23 1066 43 L586 606 Q566 631 542.5 642 Q519 653 472 653 L385 653 L385 0 L179 0 L179 1435 L385 1435 L385 812 Z" /><glyph glyph-name="" unicode="l" d="M385 174 L998 174 L998 0 L179 0 L179 1435 L385 1435 L385 174 Z" /><glyph glyph-name="" unicode="m" d="M888 532 Q913 482 935 424 Q946 453 957.5 480.5 Q969 508 983 534 L1459 1400 Q1472 1425 1487.5 1430 Q1503 1435 1530 1435 L1683 1435 L1683 0 L1502 0 L1502 1032 Q1502 1054 1503 1079 Q1504 1104 1506 1130 L1024 248 Q1013 225 993.5 213 Q974 201 950 201 L921 201 Q870 201 846 248 L354 1134 Q356 1107 358 1081 Q360 1055 360 1032 L360 0 L179 0 L179 1435 L332 1435 Q359 1435 374.5 1430 Q390 1425 403 1400 L888 532 L888 532 Z" /><glyph glyph-name="" unicode="n" d="M286 1435 Q313 1435 326.5 1429 Q340 1423 357 1400 L1174 341 Q1172 368 1170.5 395 Q1169 422 1169 445 L1169 1435 L1350 1435 L1350 0 L1246 0 Q1222 0 1205.5 8.5 Q1189 17 1173 37 L355 1096 Q357 1070 358.5 1044.5 Q360 1019 360 997 L360 0 L179 0 L179 1435 L286 1435 L286 1435 Z" /><glyph glyph-name="" unicode="o" d="M1512 718 Q1512 557 1460.5 422 Q1409 287 1316 190 Q1223 93 1092 39 Q961 -15 802 -15 Q643 -15 512.5 39 Q382 93 288 190 Q194 287 142.5 422 Q91 557 91 718 Q91 878 142.5 1013 Q194 1148 288 1245 Q382 1342 512.5 1396.5 Q643 1451 802 1451 Q961 1451 1092 1396.5 Q1223 1342 1316 1245 Q1409 1148 1460.5 1013 Q1512 878 1512 718 ZM1301 718 Q1301 847 1266 950 Q1231 1053 1165.5 1124.5 Q1100 1196 1008 1234 Q916 1272 802 1272 Q688 1272 595.5 1234 Q503 1196 437.5 1124.5 Q372 1053 336.5 950 Q301 847 301 718 Q301 588 336.5 485 Q372 382 437.5 311 Q503 240 595.5 202 Q688 164 802 164 Q916 164 1008 202 Q1100 240 1165.5 311 Q1231 382 1266 485 Q1301 588 1301 718 Z" /><glyph glyph-name="" unicode="p" d="M385 531 L385 0 L179 0 L179 1435 L610 1435 Q747 1435 848.5 1403 Q950 1371 1016.5 1312.5 Q1083 1254 1116 1171.5 Q1149 1089 1149 988 Q1149 887 1114 803.5 Q1079 720 1011 659 Q943 598 842.5 564.5 Q742 531 610 531 L385 531 ZM385 695 L610 695 Q691 695 753.5 716.5 Q816 738 858 776.5 Q900 815 921.5 869 Q943 923 943 988 Q943 1055 922.5 1107.5 Q902 1160 860.5 1197 Q819 1234 756.5 1253.5 Q694 1273 610 1273 L385 1273 L385 695 Z" /><glyph glyph-name="" unicode="q" d="M1513 718 Q1513 617 1492.5 526 Q1472 435 1433.5 357 Q1395 279 1339.5 215 Q1284 151 1214 104 L1581 -293 L1411 -293 Q1373 -293 1343.5 -282.5 Q1314 -272 1289 -246 L1044 21 Q988 4 928 -5.5 Q868 -15 803 -15 Q644 -15 513.5 39 Q383 93 289 190 Q195 287 143.5 422 Q92 557 92 718 Q92 878 143.5 1013 Q195 1148 289 1245 Q383 1342 513.5 1396.5 Q644 1451 803 1451 Q962 1451 1093 1396.5 Q1224 1342 1317 1245 Q1410 1148 1461.5 1013 Q1513 878 1513 718 ZM1302 718 Q1302 847 1267 950 Q1232 1053 1166.5 1124.5 Q1101 1196 1009 1234 Q917 1272 803 1272 Q689 1272 596.5 1234 Q504 1196 438.5 1124.5 Q373 1053 337.5 950 Q302 847 302 718 Q302 588 337.5 485 Q373 382 438.5 311 Q504 240 596.5 202 Q689 164 803 164 Q917 164 1009 202 Q1101 240 1166.5 311 Q1232 382 1267 485 Q1302 588 1302 718 Z" /><glyph glyph-name="" unicode="r" d="M385 592 L385 0 L179 0 L179 1435 L590 1435 Q728 1435 828 1407 Q928 1379 993.5 1326.5 Q1059 1274 1090 1200 Q1121 1126 1121 1035 Q1121 959 1097.5 893 Q1074 827 1029.5 774.5 Q985 722 920.5 684 Q856 646 774 627 Q813 604 841 562 L1250 0 L1066 0 Q1010 0 984 44 L624 547 Q607 571 587 581.5 Q567 592 527 592 L385 592 ZM385 743 L583 743 Q666 743 729 763 Q792 783 834 820 Q876 857 897.5 907.5 Q919 958 919 1020 Q919 1145 837 1209 Q755 1273 590 1273 L385 1273 L385 743 Z" /><glyph glyph-name="" unicode="s" d="M918 1204 Q909 1188 898.5 1180.5 Q888 1173 871 1173 Q853 1173 830 1189.5 Q807 1206 772.5 1226.5 Q738 1247 690 1263.5 Q642 1280 575 1280 Q511 1280 462.5 1263.5 Q414 1247 381.5 1218 Q349 1189 332.5 1149.5 Q316 1110 316 1064 Q316 1005 345.5 967 Q375 929 423 901.5 Q471 874 532.5 854 Q594 834 658 812 Q722 790 783.5 762.5 Q845 735 893 692.5 Q941 650 970.5 588.5 Q1000 527 1000 438 Q1000 343 967.5 260.5 Q935 178 873 116.5 Q811 55 721 19.5 Q631 -16 516 -16 Q447 -16 382.5 -2.5 Q318 11 260.5 35.5 Q203 60 152.5 94.5 Q102 129 62 172 L122 270 Q130 282 142.5 289.5 Q155 297 170 297 Q191 297 218.5 275 Q246 253 286.5 226.5 Q327 200 384 178 Q441 156 522 156 Q589 156 642 174 Q695 192 731.5 225 Q768 258 787 305 Q806 352 806 409 Q806 473 776.5 513.5 Q747 554 699 581 Q651 608 590 627 Q529 646 464.5 666.5 Q400 687 339 714 Q278 741 230 784.5 Q182 828 152.5 893 Q123 958 123 1054 Q123 1130 153 1202 Q183 1274 240 1329 Q297 1384 380.5 1417.5 Q464 1451 572 1451 Q693 1451 793.5 1413 Q894 1375 969 1303 L918 1204 Z" /><glyph glyph-name="" unicode="t" d="M1155 1435 L1155 1262 L696 1262 L696 0 L490 0 L490 1262 L30 1262 L30 1435 L1155 1435 Z" /><glyph glyph-name="" unicode="u" d="M737 165 Q824 165 892.5 194.5 Q961 224 1008.5 277 Q1056 330 1081 403.5 Q1106 477 1106 566 L1106 1435 L1312 1435 L1312 566 Q1312 441 1272 334 Q1232 227 1158 149 Q1084 71 977 27 Q870 -17 737 -17 Q603 -17 496.5 27 Q390 71 315.5 149 Q241 227 201 334 Q161 441 161 566 L161 1435 L367 1435 L367 566 Q367 478 392 404.5 Q417 331 464.5 277.5 Q512 224 581 194.5 Q650 165 737 165 Z" /><glyph glyph-name="" unicode="v" d="M3 1435 L168 1435 Q195 1435 212.5 1421.5 Q230 1408 238 1386 L632 399 Q646 364 658.5 321.5 Q671 279 682 233 Q692 279 703.5 321.5 Q715 364 729 399 L1122 1386 Q1128 1405 1146.5 1420 Q1165 1435 1191 1435 L1357 1435 L773 0 L587 0 L3 1435 Z" /><glyph glyph-name="" unicode="w" d="M28 1435 L201 1435 Q228 1435 246.5 1422 Q265 1409 271 1386 L558 414 Q565 386 571.5 353 Q578 320 585 285 Q592 321 599.5 353.5 Q607 386 617 414 L945 1386 Q951 1405 970 1420 Q989 1435 1015 1435 L1075 1435 Q1102 1435 1119 1421.5 Q1136 1408 1145 1386 L1472 414 Q1491 358 1504 290 Q1509 325 1515.5 356 Q1522 387 1529 414 L1817 1386 Q1822 1406 1841.5 1420.5 Q1861 1435 1887 1435 L2048 1435 L1600 0 L1415 0 L1060 1074 Q1055 1090 1049.5 1109 Q1044 1128 1039 1148 Q1030 1106 1019 1074 L662 0 L476 0 L28 1435 Z" /><glyph glyph-name="" unicode="x" d="M508 738 L37 1435 L243 1435 Q265 1435 275.5 1428 Q286 1421 294 1407 L660 840 Q665 852 669.5 863.5 Q674 875 682 888 L1026 1404 Q1045 1435 1073 1435 L1271 1435 L797 746 L1286 0 L1081 0 Q1058 0 1045 12 Q1032 24 1024 39 L648 632 Q645 621 640 610 Q635 599 630 590 L264 39 Q254 25 241.5 12.5 Q229 0 209 0 L17 0 L508 738 Z" /><glyph glyph-name="" unicode="y" d="M731 568 L731 0 L525 0 L525 568 L-1 1435 L181 1435 Q208 1435 224.5 1422 Q241 1409 252 1387 L569 844 Q588 807 603 775 Q618 743 630 711 Q641 743 655.5 775.5 Q670 808 688 844 L1004 1387 Q1014 1405 1031 1420 Q1048 1435 1074 1435 L1257 1435 L731 568 Z" /><glyph glyph-name="" unicode="z" d="M1142 1435 L1142 1359 Q1142 1322 1121 1291 L321 168 L1129 168 L1129 0 L51 0 L51 81 Q51 98 56.5 112.5 Q62 127 71 141 L871 1267 L90 1267 L90 1435 L1142 1435 Z" /><glyph glyph-name="" unicode="a" d="M787 0 Q759 0 744 9 Q729 18 720 44 L699 135 Q660 99 622 70.5 Q584 42 542.5 23 Q501 4 454 -6 Q407 -16 349 -16 Q289 -16 237 0.5 Q185 17 146.5 51 Q108 85 85.5 135.5 Q63 186 63 255 Q63 315 95.5 370 Q128 425 201.5 468.5 Q275 512 393.5 540 Q512 568 685 572 L685 648 Q685 763 635.5 821.5 Q586 880 490 880 Q425 880 381.5 863.5 Q338 847 306.5 827.5 Q275 808 251 792 Q227 776 203 776 Q183 776 169.5 786.5 Q156 797 146 811 L112 873 Q197 953 295.5 993 Q394 1033 513 1033 Q599 1033 666 1005 Q733 977 778.5 926.5 Q824 876 847.5 805 Q871 734 871 648 L871 0 L787 0 ZM406 117 Q451 117 489.5 126 Q528 135 561.5 152 Q595 169 625 193.5 Q655 218 685 249 L685 453 Q565 449 481 434 Q397 419 344.5 395 Q292 371 268 337.5 Q244 304 244 264 Q244 225 256.5 197 Q269 169 291 151.5 Q313 134 342.5 125.5 Q372 117 406 117 Z" /><glyph glyph-name="" unicode="b" d="M138 0 L138 1475 L328 1475 L328 872 Q391 945 471.5 988 Q552 1031 655 1031 Q744 1031 815.5 996.5 Q887 962 937 898 Q987 834 1013.5 741.5 Q1040 649 1040 534 Q1040 411 1009.5 310 Q979 209 922.5 137 Q866 65 785.5 25.5 Q705 -14 604 -14 Q504 -14 436.5 23.5 Q369 61 318 127 L309 40 Q300 0 261 0 L138 0 ZM592 880 Q507 880 444.5 841.5 Q382 803 328 732 L328 247 Q376 184 433 158.5 Q490 133 557 133 Q696 133 770 231 Q844 329 844 527 Q844 709 778.5 794.5 Q713 880 592 880 Z" /><glyph glyph-name="" unicode="c" d="M848 828 Q840 817 831.5 811 Q823 805 808 805 Q792 805 774 817.5 Q756 830 730 844.5 Q704 859 666 871.5 Q628 884 573 884 Q500 884 444 858 Q388 832 350.5 783 Q313 734 294 665 Q275 596 275 509 Q275 419 295.5 349 Q316 279 353.5 231 Q391 183 444.5 158 Q498 133 564 133 Q628 133 669 148.5 Q710 164 737 182 Q764 200 782.5 215.5 Q801 231 820 231 Q844 231 856 213 L910 144 Q875 102 832 72 Q789 42 740 23 Q691 4 638 -5 Q585 -14 530 -14 Q435 -14 353 21 Q271 56 210.5 123 Q150 190 115.5 287.5 Q81 385 81 509 Q81 622 112.5 717.5 Q144 813 205 883 Q266 953 355.5 992 Q445 1031 561 1031 Q670 1031 752.5 996 Q835 961 898 898 L848 828 Z" /><glyph glyph-name="" unicode="d" d="M871 0 Q831 0 821 38 L804 157 Q772 118 735 86.5 Q698 55 656 32.5 Q614 10 567 -2 Q520 -14 466 -14 Q379 -14 308.5 19.5 Q238 53 187.5 119 Q137 185 110 281.5 Q83 378 83 504 Q83 617 113 713.5 Q143 810 200 881 Q257 952 338 992.5 Q419 1033 521 1033 Q613 1033 678.5 1002.5 Q744 972 795 917 L795 1475 L985 1475 L985 0 L871 0 ZM528 139 Q613 139 677 177.5 Q741 216 795 287 L795 771 Q747 835 690 860.5 Q633 886 564 886 Q427 886 353 788 Q279 690 279 504 Q279 407 296 338 Q313 269 345 224.5 Q377 180 423 159.5 Q469 139 528 139 Z" /><glyph glyph-name="" unicode="e" d="M557 1031 Q649 1031 727 1000.5 Q805 970 862 912 Q919 854 951 769.5 Q983 685 983 576 Q983 532 973.5 517 Q964 502 938 502 L268 502 Q271 409 294.5 340 Q318 271 358.5 225.5 Q399 180 456 157.5 Q513 135 583 135 Q649 135 696.5 150 Q744 165 778.5 183 Q813 201 837 216 Q861 231 879 231 Q903 231 914 213 L968 144 Q933 102 887 72.5 Q841 43 788 23.5 Q735 4 678.5 -5 Q622 -14 567 -14 Q462 -14 372.5 21.5 Q283 57 218 125.5 Q153 194 116.5 295.5 Q80 397 80 529 Q80 635 113 726.5 Q146 818 207.5 885.5 Q269 953 357.5 992 Q446 1031 557 1031 ZM560 892 Q435 892 363.5 819.5 Q292 747 274 619 L813 619 Q813 679 796 729 Q779 779 746.5 815 Q714 851 667 871.5 Q620 892 560 892 Z" /><glyph glyph-name="" unicode="f" d="M205 0 L205 858 L97 871 Q74 875 60 886.5 Q46 898 46 919 L46 998 L205 998 L205 1092 Q205 1179 230 1247 Q255 1315 301 1361.5 Q347 1408 412.5 1432.5 Q478 1457 559 1457 Q592 1457 624 1452 Q656 1447 685 1438 L681 1342 Q680 1330 673 1323.5 Q666 1317 654 1314 Q642 1311 626 1311 Q610 1311 590 1311 Q544 1311 507 1299.5 Q470 1288 443.5 1262 Q417 1236 403 1192.5 Q389 1149 389 1086 L389 998 L677 998 L677 860 L395 860 L395 0 L205 0 Z" /><glyph glyph-name="" unicode="g" d="M494 1032 Q560 1032 616.5 1017.5 Q673 1003 721 976 L1001 976 L1001 906 Q1001 870 957 861 L846 845 Q877 781 877 705 Q877 630 848.5 570 Q820 510 769 467 Q718 424 647.5 401 Q577 378 494 378 Q424 378 364 393 Q301 355 301 309 Q301 274 330.5 256.5 Q360 239 408 231 Q456 223 517 221 Q578 219 642 214.5 Q706 210 767 199 Q828 188 876 162.5 Q924 137 953.5 93 Q983 49 983 -22 Q983 -88 950.5 -149.5 Q918 -211 856.5 -258.5 Q795 -306 706 -335 Q617 -364 505 -364 Q393 -364 309.5 -342 Q226 -320 170.5 -283 Q115 -246 87.5 -197.5 Q60 -149 60 -96 Q60 -21 106.5 30.5 Q153 82 234 111 Q189 131 163 165.5 Q137 200 137 257 Q137 279 145 302.5 Q153 326 169.5 349.5 Q186 373 210.5 394 Q235 415 267 431 Q192 473 149 542.5 Q106 612 106 705 Q106 780 135 840 Q164 900 215.5 943 Q267 986 338 1009 Q409 1032 494 1032 ZM808 -53 Q808 -17 787.5 5 Q767 27 732 40 Q697 53 651 58 Q605 63 554 66 Q503 69 449.5 72 Q396 75 347 82 Q293 56 259 18 Q225 -20 225 -71 Q225 -104 242 -132.5 Q259 -161 293.5 -181.5 Q328 -202 381.5 -214 Q435 -226 508 -226 Q580 -226 636 -213 Q692 -200 730 -177 Q768 -154 788 -122.5 Q808 -91 808 -53 ZM494 503 Q547 503 587 517.5 Q627 532 654 558 Q681 584 694.5 620 Q708 656 708 700 Q708 790 653.5 843.5 Q599 897 494 897 Q389 897 334.5 843.5 Q280 790 280 700 Q280 657 294 621 Q308 585 335 558.5 Q362 532 402 517.5 Q442 503 494 503 Z" /><glyph glyph-name="" unicode="h" d="M138 0 L138 1475 L328 1475 L328 885 Q392 951 470 991 Q548 1031 650 1031 Q733 1031 796.5 1003 Q860 975 903 924.5 Q946 874 968 803.5 Q990 733 990 647 L990 0 L800 0 L800 647 Q800 757 749 818.5 Q698 880 594 880 Q517 880 451 844 Q385 808 328 745 L328 0 L138 0 Z" /><glyph glyph-name="" unicode="i" d="M337 1015 L337 0 L147 0 L147 1015 L337 1015 ZM374 1330 Q374 1303 363.5 1279.5 Q353 1256 334.5 1238 Q316 1220 291.5 1209.5 Q267 1199 240 1199 Q214 1199 190.5 1209.5 Q167 1220 149 1238 Q131 1256 120.5 1279.5 Q110 1303 110 1330 Q110 1357 120.5 1381.5 Q131 1406 149 1424 Q167 1442 190.5 1452.5 Q214 1463 240 1463 Q267 1463 291.5 1452.5 Q316 1442 334.5 1424 Q353 1406 363.5 1381.5 Q374 1357 374 1330 Z" /><glyph glyph-name="" unicode="j" d="M337 1015 L337 -68 Q337 -130 320.5 -184 Q304 -238 269 -277.5 Q234 -317 178 -340 Q122 -363 44 -363 Q11 -363 -16.5 -358.5 Q-44 -354 -72 -344 L-64 -241 Q-62 -232 -58 -227.5 Q-54 -223 -46.5 -221.5 Q-39 -220 -26.5 -220 Q-14 -220 5 -220 Q83 -220 115 -184.5 Q147 -149 147 -68 L147 1015 L337 1015 ZM374 1330 Q374 1303 363 1279.5 Q352 1256 334 1238 Q316 1220 291.5 1209.5 Q267 1199 240 1199 Q213 1199 189.5 1209.5 Q166 1220 148.5 1238 Q131 1256 120.5 1279.5 Q110 1303 110 1330 Q110 1357 120.5 1381.5 Q131 1406 148.5 1424 Q166 1442 189.5 1452.5 Q213 1463 240 1463 Q267 1463 291.5 1452.5 Q316 1442 334 1424 Q352 1406 363 1381.5 Q374 1357 374 1330 Z" /><glyph glyph-name="" unicode="k" d="M328 1475 L328 611 L374 611 Q394 611 408 617 Q422 623 437 640 L747 978 Q761 996 777.5 1005.5 Q794 1015 820 1015 L992 1015 L628 621 Q600 585 567 565 Q586 553 600.5 536 Q615 519 629 499 L1016 0 L846 0 Q823 0 805.5 8 Q788 16 775 37 L454 447 Q439 469 424.5 475.5 Q410 482 380 482 L328 482 L328 0 L138 0 L138 1475 L328 1475 Z" /><glyph glyph-name="" unicode="m" d="M138 0 L138 1015 L252 1015 Q292 1015 302 977 L315 878 Q371 945 440 988 Q509 1031 601 1031 Q703 1031 766 975.5 Q829 920 857 825 Q879 879 914 918 Q949 957 992 982 Q1035 1007 1083.5 1019 Q1132 1031 1182 1031 Q1345 1031 1434 931.5 Q1523 832 1523 647 L1523 0 L1333 0 L1333 647 Q1333 762 1282.5 821 Q1232 880 1136 880 Q1093 880 1054.5 865 Q1016 850 987 821 Q958 792 941 748 Q924 704 924 647 L924 0 L734 0 L734 647 Q734 765 686.5 822.5 Q639 880 547 880 Q484 880 428.5 846.5 Q373 813 328 754 L328 0 L138 0 Z" /><glyph glyph-name="" unicode="n" d="M138 0 L138 1015 L252 1015 Q292 1015 302 977 L316 872 Q382 943 463 987 Q544 1031 650 1031 Q733 1031 796.5 1003 Q860 975 903 924.5 Q946 874 968 803.5 Q990 733 990 647 L990 0 L800 0 L800 647 Q800 757 749 818.5 Q698 880 594 880 Q517 880 451 844 Q385 808 328 745 L328 0 L138 0 Z" /><glyph glyph-name="" unicode="o" d="M569 1031 Q681 1031 771 994.5 Q861 958 924 890 Q987 822 1021 725.5 Q1055 629 1055 509 Q1055 389 1021 292 Q987 195 924 127 Q861 59 771 22.5 Q681 -14 569 -14 Q457 -14 366.5 22.5 Q276 59 212.5 127 Q149 195 115 292 Q81 389 81 509 Q81 629 115 725.5 Q149 822 212.5 890 Q276 958 366.5 994.5 Q457 1031 569 1031 ZM569 134 Q715 134 787 232 Q859 330 859 508 Q859 685 787 784 Q715 883 569 883 Q421 883 348.5 784 Q276 685 276 508 Q276 330 348.5 232 Q421 134 569 134 Z" /><glyph glyph-name="" unicode="p" d="M138 -341 L138 1015 L252 1015 Q292 1015 302 977 L318 861 Q382 938 465.5 985.5 Q549 1033 657 1033 Q744 1033 814.5 999.5 Q885 966 935.5 900 Q986 834 1013 737.5 Q1040 641 1040 515 Q1040 402 1010 305.5 Q980 209 923 138 Q866 67 785 26.5 Q704 -14 602 -14 Q509 -14 444 16 Q379 46 328 102 L328 -341 L138 -341 ZM595 880 Q509 880 445.5 841.5 Q382 803 328 732 L328 247 Q376 184 432.5 158.5 Q489 133 559 133 Q696 133 770 231 Q844 329 844 515 Q844 612 827 681 Q810 750 778 794.5 Q746 839 700 859.5 Q654 880 595 880 Z" /><glyph glyph-name="" unicode="q" d="M985 1015 L985 -341 L795 -341 L795 146 Q731 73 650.5 29.5 Q570 -14 466 -14 Q379 -14 308.5 19.5 Q238 53 187.5 119 Q137 185 110 281.5 Q83 378 83 504 Q83 617 113 713.5 Q143 810 200 881 Q257 952 338 992.5 Q419 1033 521 1033 Q570 1033 611 1024 Q652 1015 687 998 Q722 981 752 956.5 Q782 932 808 901 L821 977 Q831 1015 871 1015 L985 1015 ZM528 139 Q613 139 677 177.5 Q741 216 795 287 L795 771 Q748 833 690.5 859.5 Q633 886 564 886 Q427 886 353 788 Q279 690 279 504 Q279 407 296 338 Q313 269 345 224.5 Q377 180 423 159.5 Q469 139 528 139 Z" /><glyph glyph-name="" unicode="r" d="M138 0 L138 1015 L247 1015 Q278 1015 289.5 1004 Q301 993 305 964 L317 816 Q365 917 435 975 Q505 1033 603 1033 Q636 1033 665.5 1026 Q695 1019 717 1004 L704 862 Q698 835 672 835 Q658 835 630.5 841 Q603 847 570 847 Q523 847 486.5 833 Q450 819 421 792 Q392 765 369.5 726 Q347 687 328 637 L328 0 L138 0 Z" /><glyph glyph-name="" unicode="s" d="M734 843 Q720 819 695 819 Q679 819 659.5 830 Q640 841 613 854.5 Q586 868 548.5 879 Q511 890 460 890 Q417 890 382 879 Q347 868 322.5 849 Q298 830 284.5 804.5 Q271 779 271 749 Q271 711 293.5 685.5 Q316 660 352.5 641.5 Q389 623 436 608.5 Q483 594 532 578 Q581 562 628 541.5 Q675 521 711.5 491 Q748 461 770.5 417.5 Q793 374 793 313 Q793 242 767.5 182 Q742 122 692.5 78 Q643 34 571 9 Q499 -16 405 -16 Q299 -16 211.5 19 Q124 54 64 108 L108 180 Q116 194 128 201.5 Q140 209 158 209 Q177 209 197 195 Q217 181 245.5 164.5 Q274 148 314.5 134 Q355 120 415 120 Q466 120 503.5 133 Q541 146 566 167.5 Q591 189 603 218 Q615 247 615 279 Q615 320 592.5 347 Q570 374 533.5 393 Q497 412 450 426 Q403 440 353.5 456 Q304 472 257 492.5 Q210 513 173.5 545 Q137 577 114.5 622.5 Q92 668 92 734 Q92 793 116 847 Q140 901 186.5 942 Q233 983 301 1007 Q369 1031 456 1031 Q556 1031 637.5 999.5 Q719 968 776 912 L734 843 Z" /><glyph glyph-name="" unicode="t" d="M454 -16 Q332 -16 266 52 Q200 120 200 248 L200 860 L81 860 Q64 860 53 870.5 Q42 881 42 901 L42 977 L207 999 L250 1306 Q254 1322 265 1331.5 Q276 1341 294 1341 L390 1341 L390 998 L679 998 L679 860 L390 860 L390 261 Q390 200 419.5 169.5 Q449 139 497 139 Q524 139 544 146 Q564 153 578 162 Q592 171 602.5 178 Q613 185 621 185 Q630 185 635.5 181 Q641 177 647 167 L703 76 Q655 32 589.5 8 Q524 -16 454 -16 Z" /><glyph glyph-name="" unicode="u" d="M318 1015 L318 368 Q318 258 369 196.5 Q420 135 524 135 Q600 135 666.5 170.5 Q733 206 790 269 L790 1015 L980 1015 L980 0 L866 0 Q826 0 816 38 L801 143 Q735 72 654.5 28 Q574 -16 468 -16 Q384 -16 320.5 12 Q257 40 214.5 90.5 Q172 141 150 211.5 Q128 282 128 368 L128 1015 L318 1015 Z" /><glyph glyph-name="" unicode="v" d="M604 0 L432 0 L20 1015 L176 1015 Q199 1015 213.5 1004 Q228 993 233 977 L481 344 Q494 306 503 268.5 Q512 231 520 194 Q528 231 537.5 268 Q547 305 561 344 L812 977 Q817 994 832 1004.5 Q847 1015 867 1015 L1016 1015 L604 0 Z" /><glyph glyph-name="" unicode="w" d="M30 1015 L180 1015 Q203 1015 217.5 1004 Q232 993 237 977 L424 344 Q433 306 440 271 Q447 236 453 201 Q462 236 472 271 Q482 306 493 344 L699 981 Q704 997 717.5 1007.5 Q731 1018 751 1018 L833 1018 Q854 1018 868 1007.5 Q882 997 887 981 L1090 344 Q1101 306 1110 271 Q1119 236 1127 201 Q1133 236 1140.5 271 Q1148 306 1158 344 L1348 977 Q1354 994 1368.5 1004.5 Q1383 1015 1403 1015 L1546 1015 L1218 0 L1068 0 Q1040 0 1030 36 L813 706 Q805 730 799 754 Q793 778 788 802 Q783 778 778 753.5 Q773 729 765 705 L544 36 Q533 0 501 0 L358 0 L30 1015 Z" /><glyph glyph-name="" unicode="x" d="M375 522 L34 1015 L216 1015 Q239 1015 249.5 1008 Q260 1001 268 987 L511 614 Q516 628 522 642.5 Q528 657 538 672 L749 984 Q758 999 769 1007 Q780 1015 796 1015 L970 1015 L629 530 L984 0 L802 0 Q779 0 765.5 12 Q752 24 744 39 L496 429 Q491 413 486 399.5 Q481 386 473 375 L245 39 Q235 25 222.5 12.5 Q210 0 190 0 L20 0 L375 522 Z" /><glyph glyph-name="" unicode="y" d="M457 -296 Q448 -318 434 -329.5 Q420 -341 391 -341 L250 -341 L436 62 L18 1015 L183 1015 Q207 1015 221 1003.5 Q235 992 240 977 L503 357 Q520 311 530 266 Q537 289 545 312.5 Q553 336 562 359 L816 977 Q822 994 837 1004.5 Q852 1015 871 1015 L1022 1015 L457 -296 Z" /><glyph glyph-name="" unicode="z" d="M843 935 Q843 915 836 895.5 Q829 876 818 862 L278 148 L825 148 L825 0 L57 0 L57 80 Q57 93 63.5 111.5 Q70 130 83 147 L625 867 L87 867 L87 1015 L843 1015 L843 935 Z" /><glyph glyph-name="" unicode="0" d="M1102 718 Q1102 530 1061.5 392 Q1021 254 950.5 163.5 Q880 73 784.5 29 Q689 -15 579 -15 Q469 -15 374 29 Q279 73 208.5 163.5 Q138 254 98 392 Q58 530 58 718 Q58 906 98 1044 Q138 1182 208.5 1272.5 Q279 1363 374 1407 Q469 1451 579 1451 Q689 1451 784.5 1407 Q880 1363 950.5 1272.5 Q1021 1182 1061.5 1044 Q1102 906 1102 718 ZM905 718 Q905 880 878 990 Q851 1100 806 1167 Q761 1234 702 1262.5 Q643 1291 579 1291 Q515 1291 456 1262.5 Q397 1234 352 1167 Q307 1100 280.5 990 Q254 880 254 718 Q254 555 280.5 445 Q307 335 352 268.5 Q397 202 456 173.5 Q515 145 579 145 Q643 145 702 173.5 Q761 202 806 268.5 Q851 335 878 445 Q905 555 905 718 Z" /><glyph glyph-name="" unicode="1" d="M247 145 L552 145 L552 1098 Q552 1142 555 1189 L308 978 Q294 967 280.5 964 Q267 961 255 963.5 Q243 966 233 972 Q223 978 218 985 L159 1068 L588 1438 L742 1438 L742 145 L1021 145 L1021 0 L247 0 L247 145 Z" /><glyph glyph-name="" unicode="2" d="M592 1451 Q685 1451 764 1423.5 Q843 1396 901 1344.5 Q959 1293 992 1218.5 Q1025 1144 1025 1050 Q1025 970 1001.5 901.5 Q978 833 937.5 771 Q897 709 843.5 650 Q790 591 730 531 L361 155 Q402 166 444 173 Q486 180 524 180 L986 180 Q1017 180 1035 162 Q1053 144 1053 115 L1053 0 L91 0 L91 65 Q91 85 99.5 106.5 Q108 128 126 145 L581 603 Q638 661 684 714 Q730 767 763 820 Q796 873 813.5 927.5 Q831 982 831 1044 Q831 1105 812 1151 Q793 1197 759.5 1228 Q726 1259 680 1274 Q634 1289 581 1289 Q528 1289 484 1273.5 Q440 1258 405.5 1230.5 Q371 1203 347.5 1165.5 Q324 1128 314 1083 Q301 1046 279.5 1033.5 Q258 1021 219 1027 L119 1045 Q134 1144 174.5 1220 Q215 1296 277 1347.5 Q339 1399 419 1425 Q499 1451 592 1451 Z" /><glyph glyph-name="" unicode="3" d="M599 1451 Q692 1451 769 1424.5 Q846 1398 901.5 1349.5 Q957 1301 988 1233.5 Q1019 1166 1019 1084 Q1019 1015 1002 961.5 Q985 908 953 868 Q921 828 875.5 800.5 Q830 773 773 755 Q912 717 981.5 631 Q1051 545 1051 414 Q1051 313 1013 233.5 Q975 154 910 98.5 Q845 43 757.5 13.5 Q670 -16 571 -16 Q458 -16 377 12 Q296 40 239 89.5 Q182 139 145 208 Q108 277 83 359 L165 394 Q197 408 227 402 Q257 396 271 367 Q285 338 305 300 Q325 262 358 227.5 Q391 193 441.5 169.5 Q492 146 569 146 Q642 146 697 170 Q752 194 788.5 232 Q825 270 843 316.5 Q861 363 861 409 Q861 466 846.5 513 Q832 560 792.5 594 Q753 628 682.5 647 Q612 666 500 666 L500 804 Q592 805 655.5 823.5 Q719 842 759 874.5 Q799 907 816.5 952 Q834 997 834 1051 Q834 1111 815.5 1155.5 Q797 1200 764 1229.5 Q731 1259 686 1274 Q641 1289 588 1289 Q535 1289 490.5 1273.5 Q446 1258 411.5 1230.5 Q377 1203 353.5 1165.5 Q330 1128 320 1083 Q306 1046 285.5 1033.5 Q265 1021 226 1027 L126 1045 Q140 1144 181 1220 Q222 1296 284 1347.5 Q346 1399 426 1425 Q506 1451 599 1451 Z" /><glyph glyph-name="" unicode="4" d="M893 522 L1104 522 L1104 412 Q1104 395 1093.5 383.5 Q1083 372 1063 372 L893 372 L893 0 L727 0 L727 372 L95 372 Q74 372 59 384 Q44 396 40 415 L21 512 L716 1436 L893 1436 L893 522 ZM727 1092 Q727 1119 729 1151 Q731 1183 736 1217 L226 522 L727 522 L727 1092 Z" /><glyph glyph-name="" unicode="5" d="M985 1353 Q985 1312 959.5 1286 Q934 1260 874 1260 L432 1260 L369 897 Q478 921 571 921 Q683 921 769 887.5 Q855 854 913 795.5 Q971 737 1000.5 657.5 Q1030 578 1030 486 Q1030 372 990 279 Q950 186 880.5 120.5 Q811 55 716 19.5 Q621 -16 511 -16 Q447 -16 388.5 -3.5 Q330 9 279 30.5 Q228 52 185 80 Q142 108 108 138 L166 220 Q185 247 216 247 Q237 247 262 231.5 Q287 216 322.5 197 Q358 178 406.5 162.5 Q455 147 521 147 Q594 147 653 170.5 Q712 194 753.5 237.5 Q795 281 817 342 Q839 403 839 477 Q839 543 819.5 595.5 Q800 648 762 685.5 Q724 723 666 743 Q608 763 532 763 Q425 763 303 725 L184 760 L300 1435 L985 1435 L985 1353 Z" /><glyph glyph-name="" unicode="7" d="M1083 1435 L1083 1351 Q1083 1314 1075 1291 Q1067 1268 1059 1251 L473 67 Q459 39 435 19.5 Q411 0 370 0 L234 0 L829 1168 Q855 1220 889 1260 L151 1260 Q132 1260 118.5 1274 Q105 1288 105 1306 L105 1435 L1083 1435 Z" /><glyph glyph-name="" unicode="9" d="M692 569 Q712 596 730.5 621 Q749 646 766 670 Q712 628 644.5 607 Q577 586 502 586 Q422 586 349.5 613 Q277 640 222 692.5 Q167 745 134 822 Q101 899 101 998 Q101 1092 136 1175 Q171 1258 234.5 1319 Q298 1380 386 1415.5 Q474 1451 579 1451 Q683 1451 768 1417 Q853 1383 913 1321.5 Q973 1260 1006 1174.5 Q1039 1089 1039 986 Q1039 923 1027.5 866.5 Q1016 810 994.5 756.5 Q973 703 942 650.5 Q911 598 872 543 L526 45 Q513 25 487 12.5 Q461 0 429 0 L254 0 L692 569 ZM857 1008 Q857 1074 836 1126.5 Q815 1179 778 1216 Q741 1253 689 1273 Q637 1293 576 1293 Q512 1293 459.5 1272 Q407 1251 369.5 1214 Q332 1177 311.5 1125 Q291 1073 291 1012 Q291 878 364 805 Q437 732 566 732 Q636 732 690 754.5 Q744 777 781 815 Q818 853 837.5 903 Q857 953 857 1008 Z" /><glyph glyph-name="" unicode="l" d="M333 1475 L333 0 L143 0 L143 1475 L333 1475 Z" /><glyph glyph-name="" unicode="6" d="M482 900 Q464 877 447 856 Q430 835 415 814 Q464 846 523.5 864 Q583 882 652 882 Q738 882 815 854 Q892 826 950.5 771.5 Q1009 717 1043 637 Q1077 557 1077 454 Q1077 355 1041 269 Q1005 183 939.5 120 Q874 57 783 20.5 Q692 -16 582 -16 Q472 -16 384 19 Q296 54 233.5 118.5 Q171 183 137.5 274 Q104 365 104 477 Q104 572 145.5 678.5 Q187 785 277 906 L638 1389 Q652 1409 679 1422 Q706 1435 739 1435 L908 1435 L482 900 ZM286 444 Q286 377 305.5 321.5 Q325 266 362.5 226 Q400 186 454.5 164 Q509 142 578 142 Q648 142 705 164.5 Q762 187 802.5 227 Q843 267 865 321.5 Q887 376 887 440 Q887 509 865.5 564.5 Q844 620 804.5 658 Q765 696 710.5 716.5 Q656 737 590 737 Q520 737 463.5 713.5 Q407 690 367.5 649.5 Q328 609 307 556 Q286 503 286 444 Z" /><glyph glyph-name="" unicode="8" d="M580 -16 Q472 -16 382.5 13 Q293 42 229 95.5 Q165 149 129.5 224.5 Q94 300 94 394 Q94 531 164.5 620 Q235 709 369 748 Q257 790 200 873.5 Q143 957 143 1073 Q143 1153 174.5 1222 Q206 1291 263.5 1342 Q321 1393 401.5 1422 Q482 1451 580 1451 Q678 1451 758.5 1422 Q839 1393 896.5 1342 Q954 1291 985.5 1222 Q1017 1153 1017 1073 Q1017 957 959.5 873.5 Q902 790 790 748 Q924 709 995 620 Q1066 531 1066 394 Q1066 300 1030.5 224.5 Q995 149 931 95.5 Q867 42 777.5 13 Q688 -16 580 -16 ZM580 135 Q649 135 703 154.5 Q757 174 794.5 209 Q832 244 851.5 292 Q871 340 871 398 Q871 469 847.5 520 Q824 571 784 603.5 Q744 636 691 651.5 Q638 667 580 667 Q521 667 468.5 651.5 Q416 636 376 603.5 Q336 571 312.5 520 Q289 469 289 398 Q289 340 308.5 292 Q328 244 365.5 209 Q403 174 457 154.5 Q511 135 580 135 ZM580 819 Q649 819 696.5 840 Q744 861 774 896 Q804 931 817.5 976 Q831 1021 831 1069 Q831 1117 815.5 1160 Q800 1203 768.5 1235.5 Q737 1268 690 1286.5 Q643 1305 580 1305 Q517 1305 470 1286.5 Q423 1268 391.5 1235.5 Q360 1203 344.5 1160 Q329 1117 329 1069 Q329 1021 342.5 976 Q356 931 386 896 Q416 861 463.5 840 Q511 819 580 819 Z" /></font>
</defs>
</svg>
